<svg width="32" height="32" viewBox="0 0 32 32" fill="none" xmlns="http://www.w3.org/2000/svg">
<path d="M32 16C32 7.16344 24.8366 -1.08564e-06 16 -6.99382e-07C7.16344 -3.13124e-07 -1.08564e-06 7.16344 -6.99382e-07 16C-3.13124e-07 24.8366 7.16344 32 16 32C24.8366 32 32 24.8366 32 16Z" fill="#FF8255"/>
<path d="M8.57624 23.9265L20.5971 11.9056C23.7212 15.0298 23.563 20.2535 20.2435 23.5729C16.924 26.8924 11.7004 27.0507 8.57624 23.9265Z" fill="white" fill-opacity="0.8"/>
<path d="M23.4238 9.07354L11.4029 21.0944C8.27875 17.9702 8.43704 12.7465 11.7565 9.42709C15.076 6.10763 20.2996 5.94934 23.4238 9.07354Z" fill="white"/>
</svg>
